<svg width="327" height="309" viewBox="0 0 327 309" fill="none" xmlns="http://www.w3.org/2000/svg">
<path d="M32.3285 235.153C37.1227 234.918 41.0463 236.328 44.0993 239.382C47.1499 242.387 48.8108 246.661 49.0821 252.204L50.2775 276.625L37.5427 277.248L36.4317 254.55C36.2948 251.754 35.4643 249.617 33.9403 248.139C32.4163 246.662 30.4307 245.983 27.9836 246.103C25.5366 246.223 23.6268 247.092 22.2543 248.711C20.8818 250.33 20.264 252.538 20.4009 255.335L21.5119 278.033L8.70223 278.66L5.98889 223.226L18.7986 222.599L19.7409 241.851C20.9489 239.94 22.6497 238.38 24.8432 237.171C27.0367 235.962 29.5318 235.29 32.3285 235.153Z" fill="#F4F4F4"/>
<path d="M78.6801 276.139C74.6226 275.549 71.0869 274.151 68.0727 271.945C65.108 269.746 62.9192 266.902 61.5061 263.413C60.1425 259.93 59.7734 256.037 60.3987 251.732C61.0169 247.477 62.4997 243.878 64.8472 240.934C67.2018 237.942 70.1378 235.817 73.6551 234.559C77.1724 233.302 80.9597 232.968 85.0172 233.557C89.0746 234.147 92.6104 235.545 95.6245 237.751C98.6387 239.957 100.849 242.83 102.255 246.368C103.668 249.858 104.065 253.73 103.447 257.985C102.829 262.241 101.318 265.861 98.9135 268.847C96.566 271.79 93.6089 273.886 90.0421 275.137C86.5248 276.394 82.7375 276.728 78.6801 276.139ZM80.2757 265.154C82.7003 265.506 84.8831 264.914 86.8242 263.377C88.8148 261.847 90.0509 259.425 90.5325 256.109C91.014 252.794 90.543 250.124 89.1195 248.098C87.7454 246.08 85.846 244.894 83.4215 244.542C80.9474 244.183 78.7646 244.775 76.873 246.319C74.9886 247.814 73.802 250.243 73.3132 253.608C72.8316 256.923 73.2531 259.587 74.5778 261.598C75.9519 263.616 77.8512 264.802 80.2757 265.154Z" fill="#F4F4F4"/>
<path d="M132.584 277.656C128.94 277.872 125.659 277.441 122.74 276.362C119.821 275.282 117.474 273.718 115.7 271.67C113.923 269.571 112.854 267.18 112.495 264.497L125.148 263.747C125.383 265.186 126.127 266.319 127.378 267.146C128.629 267.973 130.128 268.335 131.875 268.232C133.472 268.137 134.677 267.765 135.49 267.116C136.35 266.414 136.751 265.564 136.691 264.565C136.62 263.367 135.945 262.531 134.664 262.056C133.381 261.531 131.321 261.002 128.485 260.469C125.448 259.947 122.91 259.372 120.869 258.741C118.825 258.061 117.031 256.94 115.486 255.379C113.938 253.768 113.079 251.54 112.911 248.695C112.769 246.299 113.289 244.089 114.471 242.066C115.7 239.989 117.554 238.302 120.031 237.003C122.559 235.701 125.594 234.945 129.138 234.735C134.379 234.424 138.574 235.478 141.722 237.896C144.921 240.311 146.872 243.651 147.575 247.917L135.746 248.618C135.461 247.183 134.744 246.073 133.595 245.29C132.497 244.503 131.074 244.162 129.327 244.265C127.83 244.354 126.7 244.722 125.937 245.368C125.171 245.964 124.817 246.762 124.876 247.76C124.947 248.958 125.624 249.819 126.908 250.344C128.241 250.866 130.273 251.347 133.004 251.786C136.146 252.401 138.714 253.05 140.708 253.734C142.698 254.367 144.469 255.514 146.02 257.175C147.618 258.784 148.528 261.034 148.75 263.926C148.895 266.371 148.326 268.609 147.044 270.638C145.809 272.615 143.926 274.229 141.396 275.481C138.915 276.73 135.978 277.455 132.584 277.656Z" fill="#F4F4F4"/>
<path d="M178.076 265.162L176.655 275.944L170.186 275.091C165.575 274.484 162.129 272.895 159.845 270.324C157.568 267.704 156.765 263.841 157.438 258.735L159.614 242.228L154.557 241.562L155.949 231.003L161.005 231.669L162.338 221.557L175.053 223.232L173.72 233.345L182.048 234.442L180.657 245.001L172.329 243.904L170.134 260.56C169.97 261.799 170.15 262.73 170.673 263.354C171.196 263.978 172.152 264.381 173.54 264.564L178.076 265.162Z" fill="#F4F4F4"/>
<path d="M196.295 231.132C194.069 231.457 192.144 231.081 190.522 230.003C188.941 228.87 188.011 227.338 187.729 225.408C187.441 223.429 187.895 221.696 189.093 220.207C190.333 218.662 192.066 217.727 194.292 217.402C196.469 217.085 198.348 217.493 199.928 218.627C201.551 219.704 202.506 221.232 202.795 223.211C203.076 225.141 202.597 226.878 201.357 228.423C200.159 229.912 198.472 230.814 196.295 231.132ZM203.231 234.516L209.271 275.928L196.58 277.779L190.54 236.367L203.231 234.516Z" fill="#F4F4F4"/>
<path d="M245.727 232.939C250.612 233.323 254.374 235.224 257.014 238.642C259.708 242.013 260.838 246.466 260.402 251.999L258.485 276.373L245.774 275.373L247.556 252.718C247.776 249.927 247.224 247.702 245.9 246.043C244.576 244.384 242.692 243.458 240.25 243.266C237.808 243.074 235.803 243.694 234.236 245.125C232.669 246.557 231.775 248.668 231.556 251.46L229.774 274.115L216.988 273.109L220.27 231.388L233.055 232.394L232.62 237.927C234.061 236.184 235.92 234.876 238.195 234.002C240.475 233.078 242.985 232.723 245.727 232.939Z" fill="#F4F4F4"/>
<path d="M281.448 225.944C284.335 225.338 286.978 225.396 289.378 226.118C291.826 226.829 293.838 228.016 295.414 229.678L294.195 223.879L306.747 221.243L315.335 262.125C316.127 265.893 316.083 269.453 315.203 272.806C314.383 276.197 312.621 279.121 309.919 281.579C307.265 284.027 303.663 285.729 299.113 286.685C293.045 287.96 287.824 287.549 283.45 285.454C279.086 283.407 276.121 279.994 274.555 275.214L286.959 272.608C287.679 274.092 288.866 275.12 290.519 275.692C292.182 276.313 294.091 276.398 296.244 275.945C298.837 275.401 300.733 274.21 301.931 272.375C303.188 270.578 303.473 268.04 302.784 264.762L301.566 258.963C300.743 261.129 299.384 263.049 297.488 264.725C295.582 266.352 293.185 267.468 290.298 268.075C286.922 268.784 283.684 268.57 280.584 267.433C277.474 266.247 274.777 264.234 272.494 261.392C270.25 258.492 268.686 254.937 267.802 250.729C266.918 246.521 266.925 242.662 267.822 239.153C268.769 235.633 270.432 232.729 272.813 230.441C275.193 228.152 278.071 226.654 281.448 225.944ZM298.497 244.357C297.84 241.226 296.44 238.94 294.298 237.499C292.205 236.049 289.911 235.585 287.415 236.11C284.92 236.634 282.981 237.986 281.6 240.167C280.257 242.288 279.915 244.915 280.573 248.046C281.231 251.178 282.611 253.493 284.715 254.993C286.857 256.434 289.175 256.892 291.671 256.367C294.166 255.843 296.08 254.496 297.412 252.326C298.794 250.145 299.155 247.489 298.497 244.357Z" fill="#F4F4F4"/>
<path d="M157.484 0.147766C122.067 2.06697 90.3704 22.6172 74.0423 54.2397C65.2583 71.2468 61.5675 90.8374 63.5015 110.044C64.963 124.423 69.3919 138.079 76.6407 150.495C78.3384 153.403 81.5273 158.201 81.9259 158.452C82.103 158.57 83.4465 158.866 84.908 159.117C86.3696 159.382 87.8606 159.648 88.2297 159.722C88.5988 159.796 89.5584 159.929 90.3704 160.017C91.1824 160.106 92.2305 160.239 92.6882 160.327C94.1055 160.563 98.5787 160.888 102.801 161.065C108.234 161.272 117.712 160.888 120.974 160.327C121.432 160.239 122.48 160.106 123.292 160.017C124.104 159.929 125.064 159.796 125.433 159.722C125.802 159.648 127.234 159.382 128.622 159.131C133.774 158.216 138.543 156.976 144.285 155.057C158.606 150.274 171.833 142.759 183.157 133.016C199.455 118.976 211.236 101.511 218.042 81.33C218.662 79.4993 219.267 77.6392 219.385 77.1963C219.504 76.7534 219.769 75.779 219.976 75.0556C220.611 72.8412 221.792 67.6593 222.191 65.312C222.412 64.0867 222.648 62.8318 222.722 62.507C222.796 62.1822 222.929 61.2226 223.017 60.3664C223.106 59.5101 223.239 58.4472 223.312 58.0043C223.563 56.587 223.903 52.0252 224.065 47.8473C224.198 44.8947 224.184 42.7688 224.065 39.8014C223.903 35.9482 223.549 30.8107 223.401 30.1759C223.357 29.9987 223.224 28.9801 223.091 27.8876C222.973 26.7951 222.811 25.5993 222.722 25.2302C222.648 24.8612 222.382 23.3701 222.117 21.9085C221.866 20.447 221.57 19.1036 221.452 18.9264C221.201 18.5278 216.403 15.339 213.495 13.6412C196.576 3.76472 177.133 -0.915176 157.484 0.147766Z" fill="#F4F4F4"/>
<path d="M252.795 57.7388C252.691 59.2151 252.101 64.1017 251.747 66.4933C250.315 75.794 247.347 87.1321 244.276 95.0599C244.04 95.6652 243.612 96.7871 243.317 97.5401C242.697 99.164 241.309 102.412 240.438 104.287C240.098 105.01 239.656 105.985 239.449 106.427C237.81 110 233.499 117.928 231.462 121.146C228.554 125.738 228.746 125.457 226.206 129.015C224.405 131.539 220.788 136.234 219.489 137.725C219.031 138.257 217.998 139.452 217.186 140.383C214.883 143.069 211.266 146.834 207.738 150.2C205.317 152.518 204.815 152.961 202.792 154.703C202.275 155.146 201.449 155.869 200.961 156.312C199.81 157.331 194.731 161.272 192.856 162.601C192.074 163.177 190.863 164.033 190.184 164.52C189.505 165.007 188.368 165.775 187.675 166.218C186.966 166.661 185.696 167.488 184.84 168.034C182.301 169.672 176.233 173.068 172.675 174.854C159.566 181.439 147.076 185.602 132.741 188.2C128.873 188.894 123.706 189.588 120.96 189.78C120.163 189.839 119.484 189.927 119.454 189.986C119.38 190.105 123.765 192.083 126.245 193.057C152.937 203.583 183.378 202.077 208.771 188.968C227.373 179.357 242.357 164.373 251.968 145.771C265.078 120.379 266.584 89.9371 256.057 63.2454C255.186 61.0162 253.105 56.3806 252.987 56.3806C252.928 56.3806 252.839 57.0006 252.795 57.7388Z" fill="#F4F4F4"/>
</svg>
