<svg width="2400" height="800" viewBox="0 0 2400 800" fill="none" xmlns="http://www.w3.org/2000/svg">
<rect width="2400" height="800" fill="#F4F4F4"/>
<path d="M454.748 293.269C478.985 292.083 498.572 298.483 513.507 312.47C528.675 326.445 536.897 346.483 538.175 372.585L543.753 486.549L484.324 489.458L479.14 383.535C478.524 370.95 474.671 361.443 467.582 355.016C460.714 348.343 451.454 345.293 439.801 345.863C428.148 346.433 419.114 350.38 412.697 357.702C406.503 364.78 403.713 374.612 404.329 387.197L409.514 493.12L350.085 496.029L344.901 390.105C344.285 377.521 340.432 368.014 333.342 361.586C326.475 354.914 317.214 351.863 305.562 352.434C293.909 353.004 284.874 356.95 278.458 364.273C272.263 371.351 269.474 381.182 270.09 393.767L275.275 499.69L215.496 502.616L205.948 307.55L265.727 304.624L266.925 329.095C272.585 320.641 280.195 313.844 289.755 308.704C299.304 303.331 310.254 300.342 322.606 299.737C337.288 299.019 350.493 301.526 362.221 307.26C374.182 312.982 383.71 321.509 390.806 332.843C397.04 321.791 405.818 312.601 417.139 305.272C428.461 297.943 440.997 293.942 454.748 293.269Z" fill="#2A2A2A"/>
<path d="M1113.88 313.023C1136.59 315.746 1153.77 325.327 1165.43 341.766C1177.35 358.001 1181.76 378.977 1178.68 404.692L1165.09 517.98L1106.01 510.893L1118.64 405.598C1120.2 392.625 1118.05 382.144 1112.19 374.156C1106.33 366.168 1097.73 361.494 1086.38 360.132C1075.03 358.77 1065.56 361.277 1057.98 367.653C1050.4 374.029 1045.83 383.704 1044.28 396.677L1031.64 501.972L972.22 494.844L995.482 300.934L1054.91 308.063L1051.82 333.778C1058.87 325.929 1067.79 320.183 1078.56 316.541C1089.37 312.667 1101.14 311.494 1113.88 313.023Z" fill="#2A2A2A"/>
<path d="M1262.11 257.432L1267.4 516.378L1207.56 517.6L1202.27 258.654L1262.11 257.432Z" fill="#2A2A2A"/>
<path d="M1307.9 295.86C1297.45 296.936 1288.55 294.804 1281.2 289.463C1274.06 283.866 1270.02 276.542 1269.08 267.49C1268.13 258.206 1270.59 250.211 1276.46 243.507C1282.55 236.546 1290.81 232.528 1301.26 231.451C1311.47 230.398 1320.15 232.67 1327.29 238.267C1334.65 243.608 1338.8 250.92 1339.76 260.204C1340.69 269.257 1338.12 277.263 1332.03 284.223C1326.15 290.928 1318.11 294.807 1307.9 295.86ZM1339.57 313.002L1359.6 507.273L1300.06 513.41L1280.04 319.139L1339.57 313.002Z" fill="#2A2A2A"/>
<path d="M1474.41 311.521C1488.09 313.073 1499.71 317.21 1509.28 323.932C1519.08 330.68 1526.25 338.89 1530.79 348.564L1533.91 321.09L1593.38 327.838L1571.4 521.545C1569.37 539.397 1563.95 555.103 1555.13 568.661C1546.52 582.478 1534.42 592.847 1518.84 599.768C1503.49 606.716 1485.04 608.966 1463.48 606.519C1434.73 603.257 1412.2 593.774 1395.9 578.069C1379.58 562.597 1371.46 543.123 1371.54 519.649L1430.31 526.318C1431.32 533.948 1435.07 540.244 1441.55 545.206C1448.01 550.4 1456.34 553.576 1466.54 554.734C1478.82 556.128 1488.97 553.64 1496.97 547.268C1505.18 541.154 1510.17 530.331 1511.93 514.797L1515.05 487.323C1508.22 495.708 1499.38 502.219 1488.52 506.858C1477.69 511.264 1465.44 512.692 1451.76 511.14C1435.76 509.324 1421.73 503.623 1409.67 494.035C1397.63 484.215 1388.64 471.337 1382.7 455.398C1377.02 439.255 1375.31 421.214 1377.57 401.275C1379.83 381.336 1385.53 364.253 1394.66 350.025C1404.02 335.823 1415.65 325.401 1429.56 318.76C1443.46 312.118 1458.41 309.705 1474.41 311.521ZM1522.9 418.117C1524.58 403.279 1521.74 391.098 1514.36 381.572C1507.22 372.073 1497.74 366.653 1485.92 365.311C1474.09 363.969 1463.52 367.114 1454.2 374.745C1445.14 382.171 1439.77 393.303 1438.08 408.141C1436.4 422.979 1439.11 435.264 1446.23 444.995C1453.6 454.52 1463.2 459.954 1475.03 461.295C1486.85 462.637 1497.31 459.479 1506.39 451.821C1515.71 444.19 1521.21 432.956 1522.9 418.117Z" fill="#2A2A2A"/>
<path d="M1722.93 294.843C1745.15 292.064 1763.91 297.244 1779.19 310.383C1794.44 323.291 1803.68 342.595 1806.89 368.295L1821.04 481.513L1762 488.895L1748.85 383.664C1747.23 370.698 1742.61 361.046 1735 354.708C1727.39 348.37 1717.91 345.91 1706.56 347.329C1695.22 348.747 1686.64 353.465 1680.82 361.482C1675 369.499 1672.9 379.99 1674.53 392.956L1687.68 498.186L1628.29 505.611L1596.16 248.612L1655.55 241.187L1666.71 330.442C1671.66 321.123 1679.02 313.265 1688.81 306.869C1698.59 300.473 1709.96 296.464 1722.93 294.843Z" fill="#2A2A2A"/>
<path d="M1953.72 443.98L1951.79 494.693L1921.36 493.533C1899.67 492.707 1882.97 486.816 1871.25 475.862C1859.53 464.674 1854.13 447.072 1855.05 423.056L1858.01 345.413L1834.22 344.506L1836.12 294.842L1859.9 295.749L1861.71 248.183L1921.52 250.463L1919.7 298.028L1958.88 299.521L1956.98 349.185L1917.81 347.692L1914.83 426.035C1914.6 431.865 1915.84 436.115 1918.54 438.786C1921.24 441.458 1925.86 442.918 1932.39 443.167L1953.72 443.98Z" fill="#2A2A2A"/>
<path d="M2051.77 280.936L2054.38 302.528L2041.43 304.097C2032.2 305.215 2024.73 303.853 2019.02 300.011C2013.31 296.07 2009.83 288.986 2008.59 278.761L2004.59 245.703L1994.46 246.929L1991.9 225.784L2002.03 224.557L1999.58 204.305L2025.04 201.221L2027.49 221.473L2044.17 219.453L2046.73 240.599L2030.05 242.619L2034.09 275.975C2034.39 278.457 2035.21 280.172 2036.53 281.119C2037.85 282.067 2039.9 282.373 2042.68 282.036L2051.77 280.936ZM2164.42 203.983C2174.74 202.732 2183.31 204.867 2190.13 210.388C2197.04 215.897 2201.17 224.211 2202.52 235.33L2208.4 283.875L2183.08 286.941L2177.62 241.821C2176.97 236.46 2175.03 232.514 2171.8 229.984C2168.66 227.342 2164.61 226.322 2159.64 226.923C2154.68 227.525 2150.94 229.489 2148.42 232.815C2145.99 236.031 2145.1 240.319 2145.75 245.68L2151.21 290.8L2125.9 293.866L2120.43 248.746C2119.78 243.385 2117.85 239.44 2114.62 236.91C2111.48 234.268 2107.43 233.248 2102.46 233.849C2097.5 234.45 2093.76 236.414 2091.24 239.741C2088.81 242.957 2087.92 247.245 2088.57 252.606L2094.03 297.726L2068.57 300.81L2058.5 217.717L2083.97 214.633L2085.23 225.057C2087.39 221.27 2090.43 218.131 2094.36 215.64C2098.28 213.051 2102.87 211.437 2108.13 210.8C2114.39 210.043 2120.11 210.709 2125.3 212.801C2130.58 214.88 2134.92 218.233 2138.3 222.86C2140.63 217.945 2144.1 213.747 2148.71 210.267C2153.33 206.787 2158.56 204.692 2164.42 203.983Z" fill="#2A2A2A"/>
<path d="M634.301 508.309C615.474 504.896 599.213 497.798 585.517 487.015C572.05 476.274 562.307 462.651 556.288 446.146C550.499 429.683 549.415 411.464 553.036 391.489C556.616 371.744 564.121 355.201 575.551 341.859C587.022 328.288 601.063 318.858 617.673 313.57C634.283 308.281 652.001 307.344 670.827 310.757C689.654 314.17 705.915 321.268 719.611 332.051C733.307 342.834 743.144 356.592 749.121 373.327C755.14 389.832 756.36 407.957 752.78 427.702C749.201 447.447 741.56 464.084 729.859 477.614C718.429 490.955 704.294 500.25 687.455 505.496C670.845 510.785 653.127 511.723 634.301 508.309ZM643.541 457.34C654.791 459.38 665.068 456.975 674.373 450.125C683.907 443.316 690.068 432.221 692.857 416.838C695.646 401.455 693.887 388.924 687.579 379.243C681.501 369.605 672.837 363.765 661.587 361.726C650.107 359.645 639.83 362.05 630.755 368.942C621.722 375.604 615.79 386.741 612.96 402.353C610.171 417.736 611.701 430.225 617.549 439.823C623.627 449.462 632.291 455.301 643.541 457.34Z" fill="#2A2A2A"/>
<path d="M885.291 482.655C866.797 487.558 849.06 488.036 832.082 484.089C815.329 480.082 800.723 471.884 788.266 459.497C776.034 447.049 767.317 431.014 762.114 411.392C756.972 391.996 756.742 373.831 761.426 356.899C766.05 339.741 774.758 325.241 787.551 313.401C800.344 301.56 815.987 293.188 834.481 288.285C852.976 283.381 870.712 282.903 887.691 286.85C904.669 290.797 919.417 299.078 931.935 311.691C944.392 324.079 953.192 339.971 958.335 359.368C963.477 378.764 963.624 397.071 958.775 414.289C954.091 431.222 945.24 445.638 932.222 457.538C919.429 469.379 903.786 477.751 885.291 482.655ZM872.016 432.585C883.067 429.654 891.351 423.113 896.867 412.96C902.608 402.748 903.475 390.086 899.469 374.975C895.462 359.864 888.548 349.265 878.727 343.179C869.132 337.033 858.808 335.425 847.757 338.355C836.48 341.345 828.196 347.886 822.906 357.979C817.556 367.846 816.914 380.448 820.981 395.785C824.987 410.896 831.675 421.555 841.045 427.761C850.641 433.907 860.964 435.515 872.016 432.585Z" fill="#2A2A2A"/>
<path d="M266.608 566.32C276.197 565.851 284.044 568.671 290.15 574.779C296.251 580.788 299.573 589.336 300.115 600.423L302.506 649.264L277.037 650.511L274.815 605.115C274.541 599.522 272.88 595.248 269.832 592.294C266.784 589.339 262.813 587.982 257.918 588.221C253.024 588.461 249.205 590.2 246.46 593.438C243.715 596.676 242.479 601.091 242.753 606.685L244.975 652.08L219.356 653.334L213.929 542.467L239.548 541.213L241.433 579.717C243.849 575.894 247.25 572.774 251.637 570.357C256.025 567.94 261.015 566.594 266.608 566.32Z" fill="#2A2A2A"/>
<path d="M352.36 649.288C344.245 648.109 337.174 645.313 331.146 640.901C325.216 636.503 320.839 630.814 318.012 623.836C315.285 616.871 314.547 609.084 315.798 600.475C317.034 591.964 320 584.766 324.695 578.879C329.404 572.894 335.276 568.644 342.31 566.129C349.345 563.614 356.92 562.946 365.035 564.125C373.149 565.304 380.221 568.1 386.249 572.512C392.278 576.924 396.698 582.669 399.509 589.747C402.335 596.726 403.13 604.471 401.894 612.981C400.658 621.492 397.635 628.733 392.827 634.704C388.132 640.59 382.218 644.783 375.084 647.284C368.05 649.798 360.475 650.467 352.36 649.288ZM355.552 627.318C360.401 628.023 364.766 626.838 368.649 623.764C372.63 620.705 375.102 615.86 376.065 609.229C377.028 602.599 376.086 597.258 373.239 593.207C370.491 589.17 366.692 586.799 361.843 586.095C356.895 585.376 352.529 586.56 348.746 589.649C344.977 592.638 342.604 597.497 341.627 604.227C340.663 610.857 341.506 616.184 344.156 620.206C346.904 624.243 350.703 626.614 355.552 627.318Z" fill="#2A2A2A"/>
<path d="M453.108 652.314C445.821 652.746 439.259 651.883 433.421 649.725C427.583 647.566 422.89 644.439 419.341 640.341C415.786 636.144 413.65 631.363 412.931 625.996L438.236 624.496C438.707 627.373 440.194 629.639 442.696 631.294C445.199 632.948 448.197 633.672 451.691 633.465C454.885 633.276 457.295 632.532 458.921 631.233C460.641 629.829 461.442 628.129 461.324 626.132C461.182 623.737 459.83 622.064 457.27 621.113C454.703 620.064 450.583 619.005 444.91 617.939C438.838 616.897 433.761 615.745 429.679 614.484C425.591 613.124 422.002 610.882 418.912 607.76C415.816 604.537 414.099 600.081 413.762 594.391C413.478 589.599 414.518 585.18 416.883 581.133C419.342 576.98 423.048 573.605 428.003 571.007C433.058 568.404 439.129 566.892 446.217 566.472C456.698 565.85 465.088 567.958 471.385 572.794C477.782 577.623 481.684 584.304 483.092 592.836L459.433 594.238C458.862 591.367 457.428 589.148 455.132 587.581C452.935 586.008 450.089 585.326 446.595 585.533C443.601 585.71 441.34 586.445 439.814 587.738C438.282 588.931 437.575 590.525 437.693 592.522C437.835 594.918 439.19 596.64 441.756 597.69C444.423 598.734 448.487 599.696 453.948 600.574C460.232 601.804 465.368 603.103 469.356 604.469C473.338 605.736 476.88 608.03 479.982 611.352C483.178 614.569 484.997 619.069 485.44 624.853C485.73 629.745 484.593 634.22 482.029 638.278C479.558 642.232 475.793 645.46 470.732 647.964C465.771 650.462 459.897 651.912 453.108 652.314Z" fill="#2A2A2A"/>
<path d="M534.151 633.332L531.31 654.896L518.371 653.191C509.151 651.976 502.257 648.798 497.69 643.657C493.135 638.417 491.531 630.691 492.877 620.479L497.228 587.465L487.115 586.132L489.898 565.015L500.01 566.347L502.676 546.122L528.106 549.473L525.441 569.699L542.097 571.894L539.314 593.011L522.658 590.816L518.268 624.128C517.941 626.607 518.301 628.47 519.347 629.717C520.393 630.964 522.304 631.771 525.08 632.137L534.151 633.332Z" fill="#2A2A2A"/>
<path d="M558.446 566.13C553.993 566.78 550.144 566.028 546.899 563.873C543.739 561.606 541.877 558.542 541.314 554.683C540.737 550.725 541.646 547.258 544.041 544.281C546.521 541.19 549.988 539.32 554.441 538.671C558.795 538.036 562.552 538.852 565.712 541.12C568.957 543.274 570.868 546.33 571.445 550.288C572.008 554.148 571.05 557.622 568.57 560.713C566.174 563.689 562.8 565.495 558.446 566.13ZM572.318 572.899L584.398 655.723L559.017 659.425L546.936 576.601L572.318 572.899Z" fill="#2A2A2A"/>
<path d="M649.491 570.184C659.261 570.953 666.786 574.755 672.066 581.59C677.454 588.333 679.713 597.238 678.842 608.304L675.008 657.053L649.586 655.053L653.15 609.743C653.59 604.16 652.485 599.71 649.837 596.392C647.189 593.074 643.423 591.223 638.538 590.839C633.653 590.455 629.643 591.694 626.509 594.557C623.375 597.42 621.588 601.643 621.149 607.226L617.585 652.536L592.014 650.524L598.578 567.082L624.149 569.094L623.278 580.159C626.161 576.675 629.877 574.058 634.428 572.31C638.987 570.462 644.008 569.753 649.491 570.184Z" fill="#2A2A2A"/>
<path d="M724.69 568.909C730.464 567.696 735.75 567.812 740.55 569.256C745.447 570.68 749.471 573.053 752.622 576.376L750.185 564.78L775.287 559.506L792.465 641.271C794.048 648.807 793.96 655.927 792.2 662.632C790.56 669.414 787.037 675.263 781.632 680.179C776.325 685.075 769.121 688.479 760.02 690.391C747.885 692.94 737.443 692.119 728.695 687.928C719.967 683.835 714.036 677.009 710.904 667.449L735.712 662.237C737.153 665.204 739.527 667.26 742.833 668.405C746.159 669.647 749.975 669.816 754.281 668.912C759.468 667.822 763.26 665.442 765.656 661.771C768.171 658.177 768.74 653.102 767.362 646.545L764.926 634.948C763.281 639.279 760.563 643.119 756.771 646.471C752.958 649.724 748.165 651.957 742.391 653.17C735.639 654.589 729.162 654.161 722.962 651.887C716.742 649.515 711.349 645.488 706.783 639.805C702.294 634.004 699.166 626.896 697.398 618.479C695.63 610.063 695.643 602.345 697.439 595.326C699.332 588.287 702.659 582.479 707.42 577.902C712.18 573.325 717.937 570.328 724.69 568.909ZM758.789 605.736C757.474 599.472 754.674 594.9 750.39 592.019C746.204 589.118 741.616 588.191 736.625 589.24C731.633 590.289 727.757 592.993 724.994 597.354C722.309 601.597 721.625 606.85 722.94 613.113C724.256 619.377 727.017 624.008 731.224 627.007C735.507 629.888 740.145 630.804 745.136 629.756C750.127 628.707 753.955 626.013 756.619 621.672C759.382 617.311 760.105 611.999 758.789 605.736Z" fill="#2A2A2A"/>
</svg>
