<svg width="400" height="400" viewBox="0 0 400 400" fill="none" xmlns="http://www.w3.org/2000/svg">
<rect width="400" height="400" fill="#2A2A2A"/>
<path d="M69.3285 281.153C74.1227 280.918 78.0463 282.328 81.0993 285.382C84.1499 288.387 85.8108 292.661 86.0821 298.204L87.2775 322.625L74.5427 323.248L73.4317 300.55C73.2948 297.754 72.4643 295.617 70.9403 294.139C69.4163 292.662 67.4307 291.983 64.9836 292.103C62.5366 292.223 60.6268 293.092 59.2543 294.711C57.8818 296.33 57.264 298.538 57.4009 301.335L58.5119 324.033L45.7022 324.66L42.9889 269.226L55.7986 268.599L56.7409 287.851C57.9489 285.94 59.6497 284.38 61.8432 283.171C64.0367 281.962 66.5318 281.29 69.3285 281.153Z" fill="#F4F4F4"/>
<path d="M115.68 322.139C111.623 321.549 108.087 320.151 105.073 317.945C102.108 315.746 99.9192 312.902 98.5061 309.413C97.1425 305.93 96.7734 302.037 97.3987 297.732C98.0169 293.477 99.4997 289.878 101.847 286.934C104.202 283.942 107.138 281.817 110.655 280.559C114.172 279.302 117.96 278.968 122.017 279.557C126.075 280.147 129.61 281.545 132.625 283.751C135.639 285.957 137.849 288.83 139.255 292.368C140.668 295.858 141.065 299.73 140.447 303.985C139.829 308.241 138.318 311.861 135.913 314.847C133.566 317.79 130.609 319.886 127.042 321.137C123.525 322.394 119.737 322.728 115.68 322.139ZM117.276 311.154C119.7 311.506 121.883 310.914 123.824 309.377C125.815 307.847 127.051 305.425 127.532 302.109C128.014 298.794 127.543 296.124 126.119 294.098C124.745 292.08 122.846 290.894 120.421 290.542C117.947 290.183 115.765 290.775 113.873 292.319C111.989 293.814 110.802 296.243 110.313 299.608C109.832 302.923 110.253 305.587 111.578 307.598C112.952 309.616 114.851 310.802 117.276 311.154Z" fill="#F4F4F4"/>
<path d="M169.584 323.656C165.94 323.872 162.659 323.441 159.74 322.362C156.821 321.282 154.474 319.718 152.7 317.67C150.923 315.571 149.854 313.18 149.495 310.497L162.148 309.747C162.383 311.186 163.127 312.319 164.378 313.146C165.629 313.973 167.128 314.335 168.875 314.232C170.472 314.137 171.677 313.765 172.49 313.116C173.35 312.414 173.751 311.564 173.691 310.565C173.62 309.367 172.945 308.531 171.664 308.056C170.381 307.531 168.321 307.002 165.485 306.469C162.448 305.947 159.91 305.372 157.869 304.741C155.825 304.061 154.031 302.94 152.486 301.379C150.938 299.768 150.079 297.54 149.911 294.695C149.769 292.299 150.289 290.089 151.471 288.066C152.7 285.989 154.554 284.302 157.031 283.003C159.559 281.701 162.594 280.945 166.138 280.735C171.379 280.424 175.574 281.478 178.722 283.896C181.921 286.311 183.872 289.651 184.575 293.917L172.746 294.618C172.461 293.183 171.744 292.073 170.595 291.29C169.497 290.503 168.074 290.162 166.327 290.265C164.83 290.354 163.7 290.722 162.937 291.368C162.171 291.964 161.817 292.762 161.876 293.76C161.947 294.958 162.624 295.819 163.908 296.344C165.241 296.866 167.273 297.347 170.004 297.786C173.146 298.401 175.714 299.05 177.708 299.734C179.698 300.367 181.469 301.514 183.02 303.175C184.618 304.784 185.528 307.034 185.75 309.926C185.895 312.371 185.326 314.609 184.044 316.638C182.809 318.615 180.926 320.229 178.396 321.481C175.915 322.73 172.978 323.455 169.584 323.656Z" fill="#F4F4F4"/>
<path d="M215.076 311.162L213.655 321.944L207.186 321.091C202.575 320.484 199.129 318.895 196.845 316.324C194.568 313.704 193.765 309.841 194.438 304.735L196.614 288.228L191.557 287.562L192.949 277.003L198.005 277.669L199.338 267.557L212.053 269.232L210.72 279.345L219.048 280.442L217.657 291.001L209.329 289.904L207.134 306.56C206.97 307.799 207.15 308.73 207.673 309.354C208.196 309.978 209.152 310.381 210.54 310.564L215.076 311.162Z" fill="#F4F4F4"/>
<path d="M233.295 277.132C231.069 277.457 229.144 277.081 227.522 276.003C225.941 274.87 225.011 273.338 224.729 271.408C224.441 269.429 224.895 267.696 226.093 266.207C227.333 264.662 229.066 263.727 231.292 263.402C233.469 263.085 235.348 263.493 236.928 264.627C238.551 265.704 239.506 267.232 239.795 269.211C240.076 271.141 239.597 272.878 238.357 274.423C237.159 275.912 235.472 276.814 233.295 277.132ZM240.231 280.516L246.271 321.928L233.58 323.779L227.54 282.367L240.231 280.516Z" fill="#F4F4F4"/>
<path d="M282.727 278.939C287.612 279.323 291.374 281.224 294.014 284.642C296.708 288.013 297.838 292.466 297.402 297.999L295.485 322.373L282.774 321.373L284.556 298.718C284.776 295.927 284.224 293.702 282.9 292.043C281.576 290.384 279.692 289.458 277.25 289.266C274.808 289.074 272.803 289.694 271.236 291.125C269.669 292.557 268.775 294.668 268.556 297.46L266.774 320.115L253.988 319.109L257.27 277.388L270.055 278.394L269.62 283.927C271.061 282.184 272.92 280.876 275.195 280.002C277.475 279.078 279.985 278.723 282.727 278.939Z" fill="#F4F4F4"/>
<path d="M318.448 271.944C321.335 271.338 323.978 271.396 326.378 272.118C328.826 272.829 330.838 274.016 332.414 275.678L331.195 269.879L343.747 267.243L352.335 308.125C353.127 311.893 353.083 315.453 352.203 318.806C351.383 322.197 349.621 325.121 346.919 327.579C344.265 330.027 340.663 331.729 336.113 332.685C330.045 333.96 324.824 333.549 320.45 331.454C316.086 329.407 313.121 325.994 311.555 321.214L323.959 318.608C324.679 320.092 325.866 321.12 327.519 321.692C329.182 322.313 331.091 322.398 333.244 321.945C335.837 321.401 337.733 320.21 338.931 318.375C340.188 316.578 340.473 314.04 339.784 310.762L338.566 304.963C337.743 307.129 336.384 309.049 334.488 310.725C332.582 312.352 330.185 313.468 327.298 314.075C323.922 314.784 320.684 314.57 317.584 313.433C314.474 312.247 311.777 310.234 309.494 307.392C307.25 304.492 305.686 300.937 304.802 296.729C303.918 292.521 303.925 288.662 304.822 285.153C305.769 281.633 307.432 278.729 309.813 276.441C312.193 274.152 315.071 272.654 318.448 271.944ZM335.497 290.357C334.84 287.226 333.44 284.94 331.298 283.499C329.205 282.049 326.911 281.585 324.415 282.11C321.92 282.634 319.981 283.986 318.6 286.167C317.257 288.288 316.915 290.915 317.573 294.046C318.231 297.178 319.611 299.493 321.715 300.993C323.857 302.434 326.175 302.892 328.671 302.367C331.166 301.843 333.08 300.496 334.412 298.326C335.794 296.145 336.155 293.489 335.497 290.357Z" fill="#F4F4F4"/>
<path d="M194.484 46.1478C159.067 48.067 127.37 68.6172 111.042 100.24C102.258 117.247 98.5675 136.837 100.501 156.044C101.963 170.423 106.392 184.079 113.641 196.495C115.338 199.403 118.527 204.201 118.926 204.452C119.103 204.57 120.446 204.866 121.908 205.117C123.37 205.382 124.861 205.648 125.23 205.722C125.599 205.796 126.558 205.929 127.37 206.017C128.182 206.106 129.231 206.239 129.688 206.327C131.105 206.563 135.579 206.888 139.801 207.065C145.234 207.272 154.712 206.888 157.974 206.327C158.432 206.239 159.48 206.106 160.292 206.017C161.104 205.929 162.064 205.796 162.433 205.722C162.802 205.648 164.234 205.382 165.622 205.131C170.774 204.216 175.543 202.976 181.285 201.057C195.606 196.274 208.833 188.759 220.157 179.016C236.455 164.976 248.236 147.511 255.042 127.33C255.662 125.499 256.267 123.639 256.385 123.196C256.504 122.753 256.769 121.779 256.976 121.056C257.611 118.841 258.792 113.659 259.191 111.312C259.412 110.087 259.648 108.832 259.722 108.507C259.796 108.182 259.929 107.223 260.017 106.366C260.106 105.51 260.239 104.447 260.312 104.004C260.563 102.587 260.903 98.0252 261.065 93.8473C261.198 90.8947 261.184 88.7688 261.065 85.8014C260.903 81.9482 260.549 76.8107 260.401 76.1759C260.357 75.9987 260.224 74.9801 260.091 73.8876C259.973 72.7951 259.811 71.5993 259.722 71.2302C259.648 70.8612 259.382 69.3701 259.117 67.9085C258.866 66.447 258.57 65.1036 258.452 64.9264C258.201 64.5278 253.403 61.339 250.495 59.6412C233.576 49.7647 214.133 45.0848 194.484 46.1478Z" fill="#F4F4F4"/>
<path d="M289.795 103.739C289.691 105.215 289.101 110.102 288.747 112.493C287.315 121.794 284.347 133.132 281.276 141.06C281.04 141.665 280.612 142.787 280.317 143.54C279.697 145.164 278.309 148.412 277.438 150.287C277.098 151.01 276.656 151.985 276.449 152.427C274.81 156 270.499 163.928 268.462 167.146C265.554 171.738 265.746 171.457 263.206 175.015C261.405 177.539 257.788 182.234 256.489 183.725C256.031 184.257 254.998 185.452 254.186 186.383C251.883 189.069 248.266 192.834 244.738 196.2C242.317 198.518 241.815 198.961 239.792 200.703C239.275 201.146 238.449 201.869 237.961 202.312C236.81 203.331 231.731 207.272 229.856 208.601C229.074 209.177 227.863 210.033 227.184 210.52C226.505 211.007 225.368 211.775 224.675 212.218C223.966 212.661 222.696 213.488 221.84 214.034C219.301 215.672 213.233 219.068 209.675 220.854C196.566 227.439 184.076 231.602 169.741 234.2C165.873 234.894 160.706 235.588 157.96 235.78C157.163 235.839 156.484 235.927 156.454 235.986C156.38 236.105 160.765 238.083 163.245 239.057C189.937 249.583 220.378 248.077 245.771 234.968C264.373 225.357 279.357 210.373 288.968 191.771C302.078 166.379 303.584 135.937 293.057 109.245C292.186 107.016 290.105 102.381 289.987 102.381C289.928 102.381 289.839 103.001 289.795 103.739Z" fill="#F4F4F4"/>
</svg>
