<svg width="2050" height="585" viewBox="0 0 2050 585" fill="none" xmlns="http://www.w3.org/2000/svg">
<path d="M279.748 214.269C303.985 213.083 323.572 219.483 338.507 233.47C353.675 247.445 361.897 267.483 363.175 293.585L368.753 407.549L309.324 410.458L304.14 304.535C303.524 291.95 299.671 282.443 292.582 276.016C285.714 269.343 276.454 266.293 264.801 266.863C253.148 267.433 244.114 271.38 237.697 278.702C231.503 285.78 228.713 295.612 229.329 308.197L234.514 414.12L175.085 417.029L169.901 311.105C169.285 298.521 165.432 289.014 158.342 282.586C151.475 275.914 142.214 272.863 130.562 273.434C118.909 274.004 109.874 277.95 103.458 285.273C97.2634 292.351 94.4741 302.182 95.0901 314.767L100.275 420.69L40.4963 423.616L30.9483 228.55L90.7267 225.624L91.9245 250.095C97.5847 241.641 105.195 234.844 114.755 229.704C124.304 224.331 135.254 221.342 147.606 220.737C162.288 220.019 175.493 222.526 187.221 228.26C199.182 233.982 208.71 242.509 215.806 253.843C222.04 242.791 230.818 233.601 242.139 226.272C253.461 218.943 265.997 214.942 279.748 214.269Z" fill="#F4F4F4"/>
<path d="M938.885 234.023C961.588 236.746 978.77 246.327 990.428 262.766C1002.35 279.001 1006.76 299.977 1003.68 325.692L990.088 438.98L931.011 431.893L943.642 326.598C945.198 313.625 943.048 303.144 937.191 295.156C931.334 287.168 922.73 282.494 911.378 281.132C900.026 279.77 890.56 282.277 882.98 288.653C875.4 295.029 870.832 304.704 869.275 317.677L856.644 422.972L797.22 415.844L820.482 221.934L879.905 229.063L876.821 254.778C883.872 246.929 892.787 241.183 903.564 237.541C914.369 233.667 926.143 232.494 938.885 234.023Z" fill="#F4F4F4"/>
<path d="M1087.11 178.432L1092.4 437.378L1032.56 438.6L1027.27 179.654L1087.11 178.432Z" fill="#F4F4F4"/>
<path d="M1132.9 216.86C1122.45 217.936 1113.55 215.804 1106.2 210.463C1099.06 204.866 1095.02 197.542 1094.08 188.49C1093.13 179.206 1095.59 171.211 1101.46 164.507C1107.55 157.546 1115.81 153.528 1126.26 152.451C1136.47 151.398 1145.15 153.67 1152.29 159.267C1159.65 164.608 1163.8 171.92 1164.76 181.204C1165.69 190.257 1163.12 198.263 1157.03 205.223C1151.15 211.928 1143.11 215.807 1132.9 216.86ZM1164.57 234.002L1184.6 428.273L1125.06 434.41L1105.04 240.139L1164.57 234.002Z" fill="#F4F4F4"/>
<path d="M1299.41 232.521C1313.09 234.073 1324.71 238.21 1334.28 244.932C1344.08 251.68 1351.25 259.89 1355.79 269.564L1358.91 242.09L1418.38 248.838L1396.4 442.545C1394.37 460.397 1388.95 476.103 1380.13 489.661C1371.52 503.478 1359.42 513.847 1343.84 520.768C1328.49 527.716 1310.04 529.966 1288.48 527.519C1259.73 524.257 1237.21 514.774 1220.91 499.069C1204.58 483.597 1196.46 464.123 1196.54 440.649L1255.31 447.318C1256.32 454.948 1260.07 461.244 1266.55 466.206C1273.01 471.4 1281.34 474.576 1291.54 475.734C1303.82 477.128 1313.97 474.64 1321.97 468.268C1330.18 462.154 1335.17 451.331 1336.93 435.797L1340.05 408.323C1333.22 416.708 1324.38 423.219 1313.52 427.858C1302.69 432.264 1290.44 433.692 1276.76 432.14C1260.76 430.324 1246.73 424.623 1234.67 415.035C1222.63 405.215 1213.64 392.337 1207.7 376.398C1202.02 360.255 1200.31 342.214 1202.57 322.275C1204.83 302.336 1210.53 285.253 1219.66 271.025C1229.02 256.823 1240.65 246.401 1254.56 239.76C1268.46 233.118 1283.41 230.705 1299.41 232.521ZM1347.9 339.117C1349.58 324.279 1346.74 312.098 1339.36 302.572C1332.22 293.073 1322.74 287.653 1310.92 286.311C1299.09 284.969 1288.52 288.114 1279.2 295.745C1270.14 303.171 1264.77 314.303 1263.08 329.141C1261.4 343.979 1264.11 356.264 1271.23 365.995C1278.6 375.52 1288.2 380.954 1300.03 382.295C1311.85 383.637 1322.31 380.479 1331.39 372.821C1340.71 365.19 1346.22 353.956 1347.9 339.117Z" fill="#F4F4F4"/>
<path d="M1547.93 215.843C1570.15 213.064 1588.91 218.244 1604.19 231.383C1619.44 244.291 1628.68 263.595 1631.89 289.295L1646.04 402.513L1587 409.895L1573.85 304.664C1572.23 291.698 1567.61 282.046 1560 275.708C1552.39 269.37 1542.91 266.91 1531.56 268.329C1520.22 269.747 1511.64 274.465 1505.82 282.482C1500 290.499 1497.9 300.99 1499.53 313.956L1512.68 419.186L1453.29 426.611L1421.16 169.612L1480.55 162.187L1491.71 251.442C1496.66 242.123 1504.02 234.265 1513.81 227.869C1523.59 221.473 1534.96 217.464 1547.93 215.843Z" fill="#F4F4F4"/>
<path d="M1778.72 364.98L1776.79 415.693L1746.36 414.533C1724.68 413.707 1707.97 407.816 1696.25 396.862C1684.53 385.674 1679.13 368.072 1680.05 344.056L1683.01 266.413L1659.22 265.506L1661.12 215.842L1684.9 216.749L1686.71 169.183L1746.52 171.463L1744.71 219.028L1783.88 220.521L1781.98 270.185L1742.81 268.692L1739.83 347.035C1739.6 352.865 1740.84 357.115 1743.54 359.786C1746.24 362.458 1750.86 363.918 1757.39 364.167L1778.72 364.98Z" fill="#F4F4F4"/>
<path d="M1876.77 201.936L1879.38 223.528L1866.43 225.097C1857.2 226.215 1849.73 224.853 1844.02 221.011C1838.31 217.07 1834.83 209.986 1833.59 199.761L1829.59 166.703L1819.46 167.929L1816.9 146.784L1827.03 145.557L1824.58 125.305L1850.04 122.221L1852.49 142.473L1869.17 140.453L1871.73 161.599L1855.05 163.619L1859.09 196.975C1859.39 199.457 1860.21 201.172 1861.53 202.119C1862.85 203.067 1864.9 203.373 1867.68 203.036L1876.77 201.936ZM1989.42 124.983C1999.74 123.732 2008.31 125.867 2015.13 131.388C2022.04 136.897 2026.17 145.211 2027.52 156.33L2033.4 204.875L2008.08 207.941L2002.62 162.821C2001.97 157.46 2000.03 153.514 1996.8 150.984C1993.66 148.342 1989.61 147.322 1984.64 147.923C1979.68 148.525 1975.94 150.489 1973.42 153.815C1970.99 157.031 1970.1 161.319 1970.75 166.68L1976.21 211.8L1950.9 214.866L1945.43 169.746C1944.78 164.385 1942.85 160.44 1939.62 157.91C1936.48 155.268 1932.43 154.248 1927.46 154.849C1922.5 155.45 1918.76 157.414 1916.24 160.741C1913.81 163.957 1912.92 168.245 1913.57 173.606L1919.03 218.726L1893.57 221.81L1883.5 138.717L1908.97 135.633L1910.23 146.057C1912.39 142.27 1915.43 139.131 1919.36 136.64C1923.28 134.051 1927.87 132.437 1933.13 131.8C1939.39 131.043 1945.11 131.709 1950.3 133.801C1955.58 135.88 1959.92 139.233 1963.3 143.86C1965.63 138.945 1969.1 134.747 1973.71 131.267C1978.33 127.787 1983.56 125.692 1989.42 124.983Z" fill="#F4F4F4"/>
<path d="M459.301 429.309C440.474 425.896 424.213 418.798 410.517 408.015C397.05 397.274 387.308 383.651 381.289 367.146C375.499 350.683 374.415 332.464 378.037 312.489C381.616 292.744 389.121 276.201 400.551 262.859C412.023 249.288 426.063 239.858 442.673 234.57C459.283 229.281 477.001 228.344 495.828 231.757C514.654 235.17 530.915 242.268 544.612 253.051C558.308 263.834 568.144 277.592 574.122 294.327C580.141 310.832 581.36 328.957 577.781 348.702C574.201 368.447 566.561 385.084 554.859 398.614C543.429 411.955 529.295 421.25 512.455 426.496C495.845 431.785 478.127 432.723 459.301 429.309ZM468.541 378.34C479.791 380.38 490.068 377.975 499.373 371.125C508.907 364.316 515.069 353.221 517.857 337.838C520.646 322.455 518.887 309.924 512.579 300.243C506.501 290.605 497.837 284.765 486.587 282.726C475.108 280.645 464.83 283.05 455.755 289.942C446.722 296.604 440.79 307.741 437.96 323.353C435.171 338.736 436.701 351.225 442.549 360.823C448.627 370.462 457.291 376.301 468.541 378.34Z" fill="#F4F4F4"/>
<path d="M710.291 403.655C691.797 408.558 674.06 409.036 657.082 405.089C640.329 401.082 625.723 392.884 613.266 380.497C601.034 368.049 592.317 352.014 587.114 332.392C581.972 312.996 581.742 294.831 586.426 277.899C591.05 260.741 599.758 246.241 612.551 234.401C625.344 222.56 640.987 214.188 659.481 209.285C677.976 204.381 695.712 203.903 712.691 207.85C729.669 211.797 744.417 220.078 756.935 232.691C769.392 245.079 778.192 260.971 783.335 280.368C788.477 299.764 788.624 318.071 783.775 335.289C779.091 352.222 770.24 366.638 757.222 378.538C744.429 390.379 728.786 398.751 710.291 403.655ZM697.016 353.585C708.067 350.654 716.351 344.113 721.867 333.96C727.608 323.748 728.475 311.086 724.469 295.975C720.462 280.864 713.548 270.265 703.727 264.179C694.132 258.033 683.808 256.425 672.757 259.355C661.48 262.345 653.196 268.886 647.906 278.979C642.556 288.846 641.914 301.448 645.981 316.785C649.987 331.896 656.675 342.555 666.045 348.761C675.641 354.907 685.964 356.515 697.016 353.585Z" fill="#F4F4F4"/>
</svg>
