<svg width="400" height="400" viewBox="0 0 400 400" fill="none" xmlns="http://www.w3.org/2000/svg">
<rect width="400" height="400" fill="#2A2A2A"/>
<path d="M191.725 50.2221C138.6 53.1009 91.0556 83.9263 66.5635 131.36C53.3874 156.871 47.8512 186.257 50.7522 215.067C52.9445 236.636 59.5879 257.119 70.461 275.743C73.0076 280.105 77.7909 287.302 78.3888 287.679C78.6545 287.856 80.6697 288.299 82.862 288.675C85.0543 289.074 87.291 289.473 87.8446 289.583C88.3982 289.694 89.8376 289.893 91.0556 290.026C92.2735 290.159 93.8458 290.358 94.5323 290.491C96.6582 290.846 103.368 291.333 109.701 291.599C117.851 291.909 132.068 291.333 136.962 290.491C137.648 290.358 139.22 290.159 140.438 290.026C141.656 289.893 143.096 289.694 143.649 289.583C144.203 289.473 146.351 289.074 148.433 288.698C156.161 287.325 163.314 285.464 171.928 282.586C193.408 275.411 213.25 264.139 230.235 249.524C254.683 228.464 272.354 202.267 282.563 171.995C283.493 169.249 284.401 166.459 284.578 165.795C284.755 165.131 285.154 163.669 285.464 162.584C286.416 159.262 288.188 151.49 288.786 147.969C289.118 146.131 289.472 144.248 289.583 143.761C289.694 143.274 289.893 141.834 290.026 140.55C290.159 139.266 290.358 137.671 290.469 137.007C290.845 134.881 291.355 128.038 291.598 121.771C291.797 117.342 291.775 114.154 291.598 109.703C291.355 103.923 290.823 96.2165 290.602 95.2643C290.535 94.9986 290.336 93.4706 290.137 91.8319C289.959 90.1932 289.716 88.3995 289.583 87.8458C289.472 87.2922 289.074 85.0556 288.675 82.8633C288.299 80.671 287.856 78.6558 287.679 78.3901C287.302 77.7922 280.105 73.009 275.743 70.4623C250.365 55.6476 221.2 48.6277 191.725 50.2221Z" fill="#F4F4F4"/>
<path d="M334.692 136.608C334.537 138.823 333.651 146.153 333.119 149.74C330.971 163.691 326.52 180.698 321.914 192.59C321.56 193.498 320.918 195.181 320.475 196.31C319.545 198.746 317.463 203.618 316.157 206.43C315.647 207.515 314.983 208.977 314.673 209.641C312.215 215 305.749 226.892 302.693 231.719C298.33 238.606 298.618 238.186 294.809 243.522C292.107 247.309 286.682 254.351 284.733 256.588C284.047 257.385 282.497 259.179 281.279 260.574C277.824 264.604 272.399 270.251 267.106 275.3C263.474 278.777 262.721 279.441 259.688 282.054C258.912 282.718 257.672 283.804 256.942 284.468C255.214 285.996 247.597 291.908 244.784 293.901C243.61 294.765 241.795 296.049 240.776 296.78C239.757 297.511 238.052 298.663 237.011 299.327C235.948 299.991 234.044 301.231 232.76 302.051C228.951 304.509 219.849 309.602 214.512 312.281C194.848 322.158 176.113 328.403 154.611 332.3C148.809 333.341 141.058 334.382 136.939 334.67C135.744 334.758 134.725 334.891 134.681 334.98C134.57 335.157 141.147 338.124 144.867 339.586C184.905 355.375 230.567 353.116 268.656 333.452C296.558 319.036 319.035 296.559 333.452 268.657C353.116 230.568 355.375 184.906 339.586 144.868C338.279 141.524 335.157 134.571 334.98 134.571C334.891 134.571 334.758 135.501 334.692 136.608Z" fill="#F4F4F4"/>
</svg>
