<svg width="300" height="300" viewBox="0 0 300 300" fill="none" xmlns="http://www.w3.org/2000/svg">
<path d="M141.725 0.222137C88.6003 3.10094 41.0556 33.9263 16.5635 81.36C3.3874 106.871 -2.14878 136.257 0.752183 165.067C2.94451 186.636 9.58792 207.119 20.461 225.743C23.0076 230.105 27.7909 237.302 28.3888 237.679C28.6545 237.856 30.6697 238.299 32.862 238.675C35.0543 239.074 37.291 239.473 37.8446 239.583C38.3982 239.694 39.8376 239.893 41.0556 240.026C42.2735 240.159 43.8458 240.358 44.5323 240.491C46.6582 240.846 53.368 241.333 59.7014 241.599C67.8507 241.909 82.0676 241.333 86.9616 240.491C87.6481 240.358 89.2203 240.159 90.4383 240.026C91.6563 239.893 93.0957 239.694 93.6493 239.583C94.2029 239.473 96.3509 239.074 98.4325 238.698C106.161 237.325 113.314 235.464 121.928 232.586C143.408 225.411 163.25 214.139 180.235 199.524C204.683 178.464 222.354 152.267 232.563 121.995C233.493 119.249 234.401 116.459 234.578 115.795C234.755 115.131 235.154 113.669 235.464 112.584C236.416 109.262 238.188 101.49 238.786 97.9685C239.118 96.1305 239.472 94.2482 239.583 93.761C239.694 93.2738 239.893 91.8344 240.026 90.5501C240.159 89.2657 240.358 87.6712 240.469 87.0069C240.845 84.881 241.355 78.0383 241.598 71.7714C241.797 67.3425 241.775 64.1537 241.598 59.7026C241.355 53.9228 240.823 46.2165 240.602 45.2643C240.535 44.9986 240.336 43.4706 240.137 41.8319C239.959 40.1932 239.716 38.3995 239.583 37.8458C239.472 37.2922 239.074 35.0556 238.675 32.8633C238.299 30.671 237.856 28.6558 237.679 28.3901C237.302 27.7922 230.105 23.009 225.743 20.4623C200.365 5.64756 171.2 -1.37228 141.725 0.222137Z" fill="#2A2A2A"/>
<path d="M284.692 86.6082C284.537 88.8226 283.651 96.1525 283.119 99.7399C280.971 113.691 276.52 130.698 271.914 142.59C271.56 143.498 270.918 145.181 270.475 146.31C269.545 148.746 267.463 153.618 266.157 156.43C265.647 157.515 264.983 158.977 264.673 159.641C262.215 165 255.749 176.892 252.693 181.719C248.33 188.606 248.618 188.186 244.809 193.522C242.107 197.309 236.682 204.351 234.733 206.588C234.047 207.385 232.497 209.179 231.279 210.574C227.824 214.604 222.399 220.251 217.106 225.3C213.474 228.777 212.721 229.441 209.688 232.054C208.912 232.718 207.672 233.804 206.942 234.468C205.214 235.996 197.597 241.908 194.784 243.901C193.61 244.765 191.795 246.049 190.776 246.78C189.757 247.511 188.052 248.663 187.011 249.327C185.948 249.991 184.044 251.231 182.76 252.051C178.951 254.509 169.849 259.602 164.512 262.281C144.848 272.158 126.113 278.403 104.611 282.3C98.8089 283.341 91.0583 284.382 86.9393 284.67C85.7435 284.758 84.7249 284.891 84.6806 284.98C84.5699 285.157 91.1468 288.124 94.8672 289.586C134.905 305.375 180.567 303.116 218.656 283.452C246.558 269.036 269.035 246.559 283.452 218.657C303.116 180.568 305.375 134.906 289.586 94.8681C288.279 91.5243 285.157 84.5709 284.98 84.5709C284.891 84.5709 284.758 85.501 284.692 86.6082Z" fill="#2A2A2A"/>
</svg>
