<svg width="2400" height="800" viewBox="0 0 2400 800" fill="none" xmlns="http://www.w3.org/2000/svg">
<rect width="2400" height="800" fill="#F4F4F4"/>
<path d="M454.748 322.269C478.985 321.083 498.572 327.483 513.507 341.47C528.675 355.445 536.897 375.483 538.175 401.585L543.753 515.549L484.324 518.458L479.14 412.535C478.524 399.95 474.671 390.443 467.582 384.016C460.714 377.343 451.454 374.293 439.801 374.863C428.148 375.433 419.114 379.38 412.697 386.702C406.503 393.78 403.713 403.612 404.329 416.197L409.514 522.12L350.085 525.029L344.901 419.105C344.285 406.521 340.432 397.014 333.342 390.586C326.475 383.914 317.214 380.863 305.562 381.434C293.909 382.004 284.874 385.95 278.458 393.273C272.263 400.351 269.474 410.182 270.09 422.767L275.275 528.69L215.496 531.616L205.948 336.55L265.727 333.624L266.925 358.095C272.585 349.641 280.195 342.844 289.755 337.704C299.304 332.331 310.254 329.342 322.606 328.737C337.288 328.019 350.493 330.526 362.221 336.26C374.182 341.982 383.71 350.509 390.806 361.843C397.04 350.791 405.818 341.601 417.139 334.272C428.461 326.943 440.997 322.942 454.748 322.269Z" fill="#2A2A2A"/>
<path d="M1113.88 342.023C1136.59 344.746 1153.77 354.327 1165.43 370.766C1177.35 387.001 1181.76 407.977 1178.68 433.692L1165.09 546.98L1106.01 539.893L1118.64 434.598C1120.2 421.625 1118.05 411.144 1112.19 403.156C1106.33 395.168 1097.73 390.494 1086.38 389.132C1075.03 387.77 1065.56 390.277 1057.98 396.653C1050.4 403.029 1045.83 412.704 1044.28 425.677L1031.64 530.972L972.22 523.844L995.482 329.934L1054.91 337.063L1051.82 362.778C1058.87 354.929 1067.79 349.183 1078.56 345.541C1089.37 341.667 1101.14 340.494 1113.88 342.023Z" fill="#2A2A2A"/>
<path d="M1262.11 286.432L1267.4 545.378L1207.56 546.6L1202.27 287.654L1262.11 286.432Z" fill="#2A2A2A"/>
<path d="M1307.9 324.86C1297.45 325.936 1288.55 323.804 1281.2 318.463C1274.06 312.866 1270.02 305.542 1269.08 296.49C1268.13 287.206 1270.59 279.211 1276.46 272.507C1282.55 265.546 1290.81 261.528 1301.26 260.451C1311.47 259.398 1320.15 261.67 1327.29 267.267C1334.65 272.608 1338.8 279.92 1339.76 289.204C1340.69 298.257 1338.12 306.263 1332.03 313.223C1326.15 319.928 1318.11 323.807 1307.9 324.86ZM1339.57 342.002L1359.6 536.273L1300.06 542.41L1280.04 348.139L1339.57 342.002Z" fill="#2A2A2A"/>
<path d="M1474.41 340.521C1488.09 342.073 1499.71 346.21 1509.28 352.932C1519.08 359.68 1526.25 367.89 1530.79 377.564L1533.91 350.09L1593.38 356.838L1571.4 550.545C1569.37 568.397 1563.95 584.103 1555.13 597.661C1546.52 611.478 1534.42 621.847 1518.84 628.768C1503.49 635.716 1485.04 637.966 1463.48 635.519C1434.73 632.257 1412.21 622.774 1395.91 607.069C1379.58 591.597 1371.46 572.123 1371.54 548.649L1430.31 555.318C1431.32 562.948 1435.07 569.244 1441.55 574.206C1448.01 579.4 1456.34 582.576 1466.54 583.734C1478.82 585.128 1488.97 582.64 1496.97 576.268C1505.18 570.154 1510.17 559.331 1511.93 543.797L1515.05 516.323C1508.22 524.708 1499.38 531.219 1488.52 535.858C1477.69 540.264 1465.44 541.692 1451.76 540.14C1435.76 538.324 1421.73 532.623 1409.67 523.035C1397.63 513.215 1388.64 500.337 1382.7 484.398C1377.02 468.255 1375.31 450.214 1377.57 430.275C1379.83 410.336 1385.53 393.253 1394.66 379.025C1404.02 364.823 1415.65 354.401 1429.56 347.76C1443.46 341.118 1458.41 338.705 1474.41 340.521ZM1522.9 447.117C1524.58 432.279 1521.74 420.098 1514.36 410.572C1507.22 401.073 1497.74 395.653 1485.92 394.311C1474.09 392.969 1463.52 396.114 1454.2 403.745C1445.14 411.171 1439.77 422.303 1438.08 437.141C1436.4 451.979 1439.11 464.264 1446.23 473.995C1453.6 483.52 1463.2 488.954 1475.03 490.295C1486.85 491.637 1497.31 488.479 1506.39 480.821C1515.71 473.19 1521.22 461.956 1522.9 447.117Z" fill="#2A2A2A"/>
<path d="M1722.93 323.843C1745.15 321.064 1763.91 326.244 1779.19 339.383C1794.44 352.291 1803.68 371.595 1806.89 397.295L1821.04 510.513L1762 517.895L1748.85 412.664C1747.23 399.698 1742.61 390.046 1735 383.708C1727.39 377.37 1717.91 374.91 1706.56 376.329C1695.22 377.747 1686.64 382.465 1680.82 390.482C1675 398.499 1672.9 408.99 1674.53 421.956L1687.68 527.186L1628.29 534.611L1596.16 277.612L1655.55 270.187L1666.71 359.442C1671.66 350.123 1679.02 342.265 1688.81 335.869C1698.59 329.473 1709.96 325.464 1722.93 323.843Z" fill="#2A2A2A"/>
<path d="M1953.72 472.98L1951.79 523.693L1921.36 522.533C1899.68 521.707 1882.97 515.816 1871.25 504.862C1859.53 493.674 1854.13 476.072 1855.05 452.056L1858.01 374.413L1834.22 373.506L1836.12 323.842L1859.9 324.749L1861.71 277.183L1921.52 279.463L1919.71 327.028L1958.88 328.521L1956.98 378.185L1917.81 376.692L1914.83 455.035C1914.6 460.865 1915.84 465.115 1918.54 467.786C1921.24 470.458 1925.86 471.918 1932.39 472.167L1953.72 472.98Z" fill="#2A2A2A"/>
<path d="M2051.77 309.936L2054.38 331.528L2041.43 333.097C2032.2 334.215 2024.73 332.853 2019.02 329.011C2013.31 325.07 2009.83 317.986 2008.59 307.761L2004.59 274.703L1994.46 275.929L1991.9 254.784L2002.03 253.557L1999.58 233.305L2025.04 230.221L2027.49 250.473L2044.17 248.453L2046.73 269.599L2030.05 271.619L2034.09 304.975C2034.39 307.457 2035.21 309.172 2036.53 310.119C2037.85 311.067 2039.9 311.373 2042.68 311.036L2051.77 309.936ZM2164.42 232.983C2174.74 231.732 2183.31 233.867 2190.13 239.388C2197.04 244.897 2201.17 253.211 2202.52 264.33L2208.4 312.875L2183.08 315.941L2177.62 270.821C2176.97 265.46 2175.03 261.514 2171.8 258.984C2168.66 256.342 2164.61 255.322 2159.64 255.923C2154.68 256.525 2150.94 258.489 2148.42 261.815C2145.99 265.031 2145.1 269.319 2145.75 274.68L2151.21 319.8L2125.9 322.866L2120.43 277.746C2119.78 272.385 2117.85 268.44 2114.62 265.91C2111.48 263.268 2107.43 262.248 2102.46 262.849C2097.5 263.45 2093.76 265.414 2091.24 268.741C2088.81 271.957 2087.92 276.245 2088.57 281.606L2094.03 326.726L2068.57 329.81L2058.5 246.717L2083.97 243.633L2085.23 254.057C2087.39 250.27 2090.43 247.131 2094.36 244.64C2098.28 242.051 2102.87 240.437 2108.13 239.8C2114.39 239.043 2120.11 239.709 2125.3 241.801C2130.58 243.88 2134.92 247.233 2138.3 251.86C2140.63 246.945 2144.1 242.747 2148.71 239.267C2153.33 235.787 2158.56 233.692 2164.42 232.983Z" fill="#2A2A2A"/>
<path d="M634.301 537.309C615.474 533.896 599.213 526.798 585.517 516.015C572.05 505.274 562.308 491.651 556.289 475.146C550.499 458.683 549.415 440.464 553.037 420.489C556.616 400.744 564.121 384.201 575.551 370.859C587.023 357.288 601.063 347.858 617.673 342.57C634.283 337.281 652.001 336.344 670.828 339.757C689.654 343.17 705.915 350.268 719.612 361.051C733.308 371.834 743.144 385.592 749.122 402.327C755.141 418.832 756.36 436.957 752.781 456.702C749.201 476.447 741.561 493.084 729.859 506.614C718.429 519.955 704.295 529.25 687.455 534.496C670.845 539.785 653.127 540.723 634.301 537.309ZM643.541 486.34C654.791 488.38 665.068 485.975 674.373 479.125C683.907 472.316 690.069 461.221 692.857 445.838C695.646 430.455 693.887 417.924 687.579 408.243C681.501 398.605 672.837 392.765 661.587 390.726C650.108 388.645 639.83 391.05 630.755 397.942C621.722 404.604 615.79 415.741 612.96 431.353C610.171 446.736 611.701 459.225 617.549 468.823C623.627 478.462 632.291 484.301 643.541 486.34Z" fill="#2A2A2A"/>
<path d="M885.291 511.655C866.797 516.558 849.06 517.036 832.082 513.089C815.329 509.082 800.723 500.884 788.266 488.497C776.034 476.049 767.317 460.014 762.114 440.392C756.972 420.996 756.742 402.831 761.426 385.899C766.05 368.741 774.758 354.241 787.551 342.401C800.344 330.56 815.987 322.188 834.481 317.285C852.976 312.381 870.712 311.903 887.691 315.85C904.669 319.797 919.417 328.078 931.935 340.691C944.392 353.079 953.192 368.971 958.335 388.368C963.477 407.764 963.624 426.071 958.775 443.289C954.091 460.222 945.24 474.638 932.222 486.538C919.429 498.379 903.786 506.751 885.291 511.655ZM872.016 461.585C883.067 458.654 891.351 452.113 896.867 441.96C902.608 431.748 903.475 419.086 899.469 403.975C895.462 388.864 888.548 378.265 878.727 372.179C869.132 366.033 858.808 364.425 847.757 367.355C836.48 370.345 828.196 376.886 822.906 386.979C817.556 396.846 816.914 409.448 820.981 424.785C824.987 439.896 831.675 450.555 841.045 456.761C850.641 462.907 860.964 464.515 872.016 461.585Z" fill="#2A2A2A"/>
</svg>
