<svg width="400" height="400" viewBox="0 0 400 400" fill="none" xmlns="http://www.w3.org/2000/svg">
<rect width="400" height="400" fill="#2A2A2A"/>
<path d="M350 200C350 180.302 346.12 160.796 338.582 142.597C331.044 124.399 319.995 107.863 306.066 93.934C292.137 80.0052 275.601 68.9563 257.402 61.4181C239.204 53.8799 219.698 50 200 50L200 170C203.94 170 207.841 170.776 211.48 172.284C215.12 173.791 218.427 176.001 221.213 178.787C223.999 181.573 226.209 184.88 227.716 188.519C229.224 192.159 230 196.06 230 200H350Z" fill="#F4F4F4"/>
<path d="M200 350C219.698 350 239.204 346.12 257.403 338.582C275.601 331.044 292.137 319.995 306.066 306.066C319.995 292.137 331.044 275.601 338.582 257.403C346.12 239.204 350 219.698 350 200L230 200C230 203.94 229.224 207.841 227.716 211.48C226.209 215.12 223.999 218.427 221.213 221.213C218.427 223.999 215.12 226.209 211.481 227.716C207.841 229.224 203.94 230 200 230L200 350Z" fill="#E2E2E2"/>
<path d="M50.0001 200C50.0001 219.698 53.8799 239.204 61.4181 257.403C68.9563 275.601 80.0053 292.137 93.934 306.066C107.863 319.995 124.399 331.044 142.598 338.582C160.796 346.12 180.302 350 200 350L200 230C196.06 230 192.159 229.224 188.52 227.716C184.88 226.209 181.573 223.999 178.787 221.213C176.001 218.427 173.791 215.12 172.284 211.481C170.776 207.841 170 203.94 170 200L50.0001 200Z" fill="#C3C3C3"/>
<path d="M200 50C180.302 50 160.796 53.8799 142.597 61.4181C124.399 68.9563 107.863 80.0052 93.934 93.934C80.0052 107.863 68.9563 124.399 61.4181 142.597C53.8799 160.796 50 180.302 50 200L170 200C170 196.06 170.776 192.159 172.284 188.519C173.791 184.88 176.001 181.573 178.787 178.787C181.573 176.001 184.88 173.791 188.519 172.284C192.159 170.776 196.06 170 200 170L200 50Z" fill="#ADADAD"/>
</svg>
