<svg width="1430" height="525" viewBox="0 0 1430 525" fill="none" xmlns="http://www.w3.org/2000/svg">
<path d="M81.55 217.35C87.3833 208.25 95.4333 200.9 105.7 195.3C115.967 189.7 127.983 186.9 141.75 186.9C157.85 186.9 172.433 190.983 185.5 199.15C198.567 207.317 208.833 218.983 216.3 234.15C224 249.317 227.85 266.933 227.85 287C227.85 307.067 224 324.8 216.3 340.2C208.833 355.367 198.567 367.15 185.5 375.55C172.433 383.717 157.85 387.8 141.75 387.8C128.217 387.8 116.2 385 105.7 379.4C95.4333 373.8 87.3833 366.567 81.55 357.7V478.1H21.7V189.7H81.55V217.35ZM166.95 287C166.95 272.067 162.75 260.4 154.35 252C146.183 243.367 136.033 239.05 123.9 239.05C112 239.05 101.85 243.367 93.45 252C85.2833 260.633 81.2 272.417 81.2 287.35C81.2 302.283 85.2833 314.067 93.45 322.7C101.85 331.333 112 335.65 123.9 335.65C135.8 335.65 145.95 331.333 154.35 322.7C162.75 313.833 166.95 301.933 166.95 287ZM379.299 187.6C401.699 187.6 419.666 195.067 433.199 210C446.732 224.7 453.499 245 453.499 270.9V385H393.999V278.95C393.999 265.883 390.616 255.733 383.849 248.5C377.082 241.267 367.982 237.65 356.549 237.65C345.115 237.65 336.015 241.267 329.249 248.5C322.482 255.733 319.099 265.883 319.099 278.95V385H259.249V126H319.099V215.95C325.165 207.317 333.449 200.433 343.949 195.3C354.449 190.167 366.232 187.6 379.299 187.6ZM603.939 334.25V385H573.489C551.789 385 534.872 379.75 522.739 369.25C510.605 358.517 504.539 341.133 504.539 317.1V239.4H480.739V189.7H504.539V142.1H564.389V189.7H603.589V239.4H564.389V317.8C564.389 323.633 565.789 327.833 568.589 330.4C571.389 332.967 576.055 334.25 582.589 334.25H603.939ZM836.776 189.7L714.276 477.75H649.876L694.676 378.35L615.226 189.7H682.076L727.226 311.85L772.026 189.7H836.776ZM918.269 222.25C925.269 211.517 934.019 203.117 944.519 197.05C955.019 190.75 966.685 187.6 979.519 187.6V250.95H963.069C948.135 250.95 936.935 254.217 929.469 260.75C922.002 267.05 918.269 278.25 918.269 294.35V385H858.419V189.7H918.269V222.25ZM1097.03 387.8C1077.89 387.8 1060.63 383.717 1045.23 375.55C1030.06 367.383 1018.04 355.717 1009.18 340.55C1000.54 325.383 996.226 307.65 996.226 287.35C996.226 267.283 1000.66 249.667 1009.53 234.5C1018.39 219.1 1030.53 207.317 1045.93 199.15C1061.33 190.983 1078.59 186.9 1097.73 186.9C1116.86 186.9 1134.13 190.983 1149.53 199.15C1164.93 207.317 1177.06 219.1 1185.93 234.5C1194.79 249.667 1199.23 267.283 1199.23 287.35C1199.23 307.417 1194.68 325.15 1185.58 340.55C1176.71 355.717 1164.46 367.383 1148.83 375.55C1133.43 383.717 1116.16 387.8 1097.03 387.8ZM1097.03 336C1108.46 336 1118.14 331.8 1126.08 323.4C1134.24 315 1138.33 302.983 1138.33 287.35C1138.33 271.717 1134.36 259.7 1126.43 251.3C1118.73 242.9 1109.16 238.7 1097.73 238.7C1086.06 238.7 1076.38 242.9 1068.68 251.3C1060.98 259.467 1057.13 271.483 1057.13 287.35C1057.13 302.983 1060.86 315 1068.33 323.4C1076.03 331.8 1085.59 336 1097.03 336Z" fill="#2A2A2A"/>
<path d="M1265.95 208.25V230H1252.9C1243.6 230 1236.35 227.75 1231.15 223.25C1225.95 218.65 1223.35 211.2 1223.35 200.9V167.6H1213.15V146.3H1223.35V125.9H1249V146.3H1265.8V167.6H1249V201.2C1249 203.7 1249.6 205.5 1250.8 206.6C1252 207.7 1254 208.25 1256.8 208.25H1265.95ZM1387.04 145.4C1397.44 145.4 1405.69 148.55 1411.79 154.85C1417.99 161.15 1421.09 169.9 1421.09 181.1V230H1395.59V184.55C1395.59 179.15 1394.14 175 1391.24 172.1C1388.44 169.1 1384.54 167.6 1379.54 167.6C1374.54 167.6 1370.59 169.1 1367.69 172.1C1364.89 175 1363.49 179.15 1363.49 184.55V230H1337.99V184.55C1337.99 179.15 1336.54 175 1333.64 172.1C1330.84 169.1 1326.94 167.6 1321.94 167.6C1316.94 167.6 1312.99 169.1 1310.09 172.1C1307.29 175 1305.89 179.15 1305.89 184.55V230H1280.24V146.3H1305.89V156.8C1308.49 153.3 1311.89 150.55 1316.09 148.55C1320.29 146.45 1325.04 145.4 1330.34 145.4C1336.64 145.4 1342.24 146.75 1347.14 149.45C1352.14 152.15 1356.04 156 1358.84 161C1361.74 156.4 1365.69 152.65 1370.69 149.75C1375.69 146.85 1381.14 145.4 1387.04 145.4Z" fill="#2A2A2A"/>
</svg>
