<svg width="2400" height="800" viewBox="0 0 2400 800" fill="none" xmlns="http://www.w3.org/2000/svg">
<rect width="2400" height="800" fill="#F4F4F4"/>
<path d="M566.55 354.35C572.383 345.25 580.433 337.9 590.7 332.3C600.967 326.7 612.983 323.9 626.75 323.9C642.85 323.9 657.433 327.983 670.5 336.15C683.567 344.317 693.833 355.983 701.3 371.15C709 386.317 712.85 403.933 712.85 424C712.85 444.067 709 461.8 701.3 477.2C693.833 492.367 683.567 504.15 670.5 512.55C657.433 520.717 642.85 524.8 626.75 524.8C613.217 524.8 601.2 522 590.7 516.4C580.433 510.8 572.383 503.567 566.55 494.7V615.1H506.7V326.7H566.55V354.35ZM651.95 424C651.95 409.067 647.75 397.4 639.35 389C631.183 380.367 621.033 376.05 608.9 376.05C597 376.05 586.85 380.367 578.45 389C570.283 397.633 566.2 409.417 566.2 424.35C566.2 439.283 570.283 451.067 578.45 459.7C586.85 468.333 597 472.65 608.9 472.65C620.8 472.65 630.95 468.333 639.35 459.7C647.75 450.833 651.95 438.933 651.95 424ZM864.299 324.6C886.699 324.6 904.666 332.067 918.199 347C931.732 361.7 938.499 382 938.499 407.9V522H878.999V415.95C878.999 402.883 875.616 392.733 868.849 385.5C862.082 378.267 852.982 374.65 841.549 374.65C830.115 374.65 821.015 378.267 814.249 385.5C807.482 392.733 804.099 402.883 804.099 415.95V522H744.249V263H804.099V352.95C810.165 344.317 818.449 337.433 828.949 332.3C839.449 327.167 851.232 324.6 864.299 324.6ZM1088.94 471.25V522H1058.49C1036.79 522 1019.87 516.75 1007.74 506.25C995.605 495.517 989.539 478.133 989.539 454.1V376.4H965.739V326.7H989.539V279.1H1049.39V326.7H1088.59V376.4H1049.39V454.8C1049.39 460.633 1050.79 464.833 1053.59 467.4C1056.39 469.967 1061.06 471.25 1067.59 471.25H1088.94ZM1321.78 326.7L1199.28 614.75H1134.88L1179.68 515.35L1100.23 326.7H1167.08L1212.23 448.85L1257.03 326.7H1321.78ZM1403.27 359.25C1410.27 348.517 1419.02 340.117 1429.52 334.05C1440.02 327.75 1451.69 324.6 1464.52 324.6V387.95H1448.07C1433.14 387.95 1421.94 391.217 1414.47 397.75C1407 404.05 1403.27 415.25 1403.27 431.35V522H1343.42V326.7H1403.27V359.25ZM1582.03 524.8C1562.89 524.8 1545.63 520.717 1530.23 512.55C1515.06 504.383 1503.04 492.717 1494.18 477.55C1485.54 462.383 1481.23 444.65 1481.23 424.35C1481.23 404.283 1485.66 386.667 1494.53 371.5C1503.39 356.1 1515.53 344.317 1530.93 336.15C1546.33 327.983 1563.59 323.9 1582.73 323.9C1601.86 323.9 1619.13 327.983 1634.53 336.15C1649.93 344.317 1662.06 356.1 1670.93 371.5C1679.79 386.667 1684.23 404.283 1684.23 424.35C1684.23 444.417 1679.68 462.15 1670.58 477.55C1661.71 492.717 1649.46 504.383 1633.83 512.55C1618.43 520.717 1601.16 524.8 1582.03 524.8ZM1582.03 473C1593.46 473 1603.14 468.8 1611.08 460.4C1619.24 452 1623.33 439.983 1623.33 424.35C1623.33 408.717 1619.36 396.7 1611.43 388.3C1603.73 379.9 1594.16 375.7 1582.73 375.7C1571.06 375.7 1561.38 379.9 1553.68 388.3C1545.98 396.467 1542.13 408.483 1542.13 424.35C1542.13 439.983 1545.86 452 1553.33 460.4C1561.03 468.8 1570.59 473 1582.03 473Z" fill="#2A2A2A"/>
<path d="M1750.95 345.25V367H1737.9C1728.6 367 1721.35 364.75 1716.15 360.25C1710.95 355.65 1708.35 348.2 1708.35 337.9V304.6H1698.15V283.3H1708.35V262.9H1734V283.3H1750.8V304.6H1734V338.2C1734 340.7 1734.6 342.5 1735.8 343.6C1737 344.7 1739 345.25 1741.8 345.25H1750.95ZM1872.04 282.4C1882.44 282.4 1890.69 285.55 1896.79 291.85C1902.99 298.15 1906.09 306.9 1906.09 318.1V367H1880.59V321.55C1880.59 316.15 1879.14 312 1876.24 309.1C1873.44 306.1 1869.54 304.6 1864.54 304.6C1859.54 304.6 1855.59 306.1 1852.69 309.1C1849.89 312 1848.49 316.15 1848.49 321.55V367H1822.99V321.55C1822.99 316.15 1821.54 312 1818.64 309.1C1815.84 306.1 1811.94 304.6 1806.94 304.6C1801.94 304.6 1797.99 306.1 1795.09 309.1C1792.29 312 1790.89 316.15 1790.89 321.55V367H1765.24V283.3H1790.89V293.8C1793.49 290.3 1796.89 287.55 1801.09 285.55C1805.29 283.45 1810.04 282.4 1815.34 282.4C1821.64 282.4 1827.24 283.75 1832.14 286.45C1837.14 289.15 1841.04 293 1843.84 298C1846.74 293.4 1850.69 289.65 1855.69 286.75C1860.69 283.85 1866.14 282.4 1872.04 282.4Z" fill="#2A2A2A"/>
</svg>
