<svg width="300" height="300" viewBox="0 0 300 300" fill="none" xmlns="http://www.w3.org/2000/svg">
<path d="M300 150C300 130.302 296.12 110.796 288.582 92.5975C281.044 74.3986 269.995 57.8628 256.066 43.934C242.137 30.0052 225.601 18.9563 207.402 11.4181C189.204 3.87986 169.698 -8.61039e-07 150 0L150 120C153.94 120 157.841 120.776 161.48 122.284C165.12 123.791 168.427 126.001 171.213 128.787C173.999 131.573 176.209 134.88 177.716 138.519C179.224 142.159 180 146.06 180 150H300Z" fill="#56CEC0"/>
<path d="M150 300C169.698 300 189.204 296.12 207.403 288.582C225.601 281.044 242.137 269.995 256.066 256.066C269.995 242.137 281.044 225.601 288.582 207.403C296.12 189.204 300 169.698 300 150L180 150C180 153.94 179.224 157.841 177.716 161.48C176.209 165.12 173.999 168.427 171.213 171.213C168.427 173.999 165.12 176.209 161.481 177.716C157.841 179.224 153.94 180 150 180L150 300Z" fill="#42B8AA"/>
<path d="M7.41486e-05 150C7.24265e-05 169.698 3.87993 189.204 11.4181 207.403C18.9563 225.601 30.0053 242.137 43.934 256.066C57.8628 269.995 74.3987 281.044 92.5975 288.582C110.796 296.12 130.302 300 150 300L150 180C146.06 180 142.159 179.224 138.52 177.716C134.88 176.209 131.573 173.999 128.787 171.213C126.001 168.427 123.791 165.12 122.284 161.481C120.776 157.841 120 153.94 120 150L7.41486e-05 150Z" fill="#2F9E91"/>
<path d="M150 -7.42269e-06C130.302 -6.44793e-06 110.796 3.87986 92.5975 11.4181C74.3986 18.9563 57.8627 30.0052 43.934 43.934C30.0052 57.8628 18.9563 74.3986 11.4181 92.5975C3.87985 110.796 -7.41338e-06 130.302 -5.79176e-06 150L120 150C120 146.06 120.776 142.159 122.284 138.519C123.791 134.88 126.001 131.573 128.787 128.787C131.573 126.001 134.88 123.791 138.519 122.284C142.159 120.776 146.06 120 150 120L150 -7.42269e-06Z" fill="#1F8176"/>
</svg>
